<svg xmlns="http://www.w3.org/2000/svg" viewBox="0 0 1200 190" width="1200" height="190" role="img" aria-label="Tech stack"><defs><linearGradient id="fadeX" x1="0" x2="1"><stop offset="0" stop-color="#fff" stop-opacity="0"/><stop offset="0.12" stop-color="#fff"/><stop offset="0.88" stop-color="#fff"/><stop offset="1" stop-color="#fff" stop-opacity="0"/></linearGradient><mask id="m"><rect width="1200" height="190" fill="url(#fadeX)"/></mask><clipPath id="c"><rect width="1200" height="190" rx="22"/></clipPath></defs><g clip-path="url(#c)"><rect width="1200" height="190" fill="#0B0B0D"/><g mask="url(#m)"><g><animateTransform attributeName="transform" type="translate" from="0 0" to="-1071.0 0" dur="28s" repeatCount="indefinite"/><rect x="0.0" y="40" width="98.0" height="40" rx="20" fill="#101013" stroke="#3A3A42"/><text x="49.0" y="65" text-anchor="middle" font-family="SFMono-Regular, ui-monospace, Menlo, Consolas, monospace" font-size="15" fill="#C4C4CB">Python</text><rect x="116.0" y="40" width="80.0" height="40" rx="20" fill="#101013" stroke="#3A3A42"/><text x="156.0" y="65" text-anchor="middle" font-family="SFMono-Regular, ui-monospace, Menlo, Consolas, monospace" font-size="15" fill="#C4C4CB">Java</text><rect x="214.0" y="40" width="53.0" height="40" rx="20" fill="#101013" stroke="#3A3A42"/><text x="240.5" y="65" text-anchor="middle" font-family="SFMono-Regular, ui-monospace, Menlo, Consolas, monospace" font-size="15" fill="#C4C4CB">C</text><rect x="285.0" y="40" width="134.0" height="40" rx="20" fill="#101013" stroke="#3A3A42"/><text x="352.0" y="65" text-anchor="middle" font-family="SFMono-Regular, ui-monospace, Menlo, Consolas, monospace" font-size="15" fill="#C4C4CB">TypeScript</text><rect x="437.0" y="40" width="134.0" height="40" rx="20" fill="#101013" stroke="#3A3A42"/><text x="504.0" y="65" text-anchor="middle" font-family="SFMono-Regular, ui-monospace, Menlo, Consolas, monospace" font-size="15" fill="#C4C4CB">JavaScript</text><rect x="589.0" y="40" width="98.0" height="40" rx="20" fill="#101013" stroke="#3A3A42"/><text x="638.0" y="65" text-anchor="middle" font-family="SFMono-Regular, ui-monospace, Menlo, Consolas, monospace" font-size="15" fill="#C4C4CB">Kotlin</text><rect x="705.0" y="40" width="89.0" height="40" rx="20" fill="#101013" stroke="#3A3A42"/><text x="749.5" y="65" text-anchor="middle" font-family="SFMono-Regular, ui-monospace, Menlo, Consolas, monospace" font-size="15" fill="#C4C4CB">React</text><rect x="812.0" y="40" width="107.0" height="40" rx="20" fill="#101013" stroke="#3A3A42"/><text x="865.5" y="65" text-anchor="middle" font-family="SFMono-Regular, ui-monospace, Menlo, Consolas, monospace" font-size="15" fill="#C4C4CB">Node.js</text><rect x="937.0" y="40" width="116.0" height="40" rx="20" fill="#101013" stroke="#3A3A42"/><text x="995.0" y="65" text-anchor="middle" font-family="SFMono-Regular, ui-monospace, Menlo, Consolas, monospace" font-size="15" fill="#C4C4CB">Tailwind</text><rect x="1071.0" y="40" width="98.0" height="40" rx="20" fill="#101013" stroke="#3A3A42"/><text x="1120.0" y="65" text-anchor="middle" font-family="SFMono-Regular, ui-monospace, Menlo, Consolas, monospace" font-size="15" fill="#C4C4CB">Python</text><rect x="1187.0" y="40" width="80.0" height="40" rx="20" fill="#101013" stroke="#3A3A42"/><text x="1227.0" y="65" text-anchor="middle" font-family="SFMono-Regular, ui-monospace, Menlo, Consolas, monospace" font-size="15" fill="#C4C4CB">Java</text><rect x="1285.0" y="40" width="53.0" height="40" rx="20" fill="#101013" stroke="#3A3A42"/><text x="1311.5" y="65" text-anchor="middle" font-family="SFMono-Regular, ui-monospace, Menlo, Consolas, monospace" font-size="15" fill="#C4C4CB">C</text><rect x="1356.0" y="40" width="134.0" height="40" rx="20" fill="#101013" stroke="#3A3A42"/><text x="1423.0" y="65" text-anchor="middle" font-family="SFMono-Regular, ui-monospace, Menlo, Consolas, monospace" font-size="15" fill="#C4C4CB">TypeScript</text><rect x="1508.0" y="40" width="134.0" height="40" rx="20" fill="#101013" stroke="#3A3A42"/><text x="1575.0" y="65" text-anchor="middle" font-family="SFMono-Regular, ui-monospace, Menlo, Consolas, monospace" font-size="15" fill="#C4C4CB">JavaScript</text><rect x="1660.0" y="40" width="98.0" height="40" rx="20" fill="#101013" stroke="#3A3A42"/><text x="1709.0" y="65" text-anchor="middle" font-family="SFMono-Regular, ui-monospace, Menlo, Consolas, monospace" font-size="15" fill="#C4C4CB">Kotlin</text><rect x="1776.0" y="40" width="89.0" height="40" rx="20" fill="#101013" stroke="#3A3A42"/><text x="1820.5" y="65" text-anchor="middle" font-family="SFMono-Regular, ui-monospace, Menlo, Consolas, monospace" font-size="15" fill="#C4C4CB">React</text><rect x="1883.0" y="40" width="107.0" height="40" rx="20" fill="#101013" stroke="#3A3A42"/><text x="1936.5" y="65" text-anchor="middle" font-family="SFMono-Regular, ui-monospace, Menlo, Consolas, monospace" font-size="15" fill="#C4C4CB">Node.js</text><rect x="2008.0" y="40" width="116.0" height="40" rx="20" fill="#101013" stroke="#3A3A42"/><text x="2066.0" y="65" text-anchor="middle" font-family="SFMono-Regular, ui-monospace, Menlo, Consolas, monospace" font-size="15" fill="#C4C4CB">Tailwind</text><rect x="2142.0" y="40" width="98.0" height="40" rx="20" fill="#101013" stroke="#3A3A42"/><text x="2191.0" y="65" text-anchor="middle" font-family="SFMono-Regular, ui-monospace, Menlo, Consolas, monospace" font-size="15" fill="#C4C4CB">Python</text><rect x="2258.0" y="40" width="80.0" height="40" rx="20" fill="#101013" stroke="#3A3A42"/><text x="2298.0" y="65" text-anchor="middle" font-family="SFMono-Regular, ui-monospace, Menlo, Consolas, monospace" font-size="15" fill="#C4C4CB">Java</text><rect x="2356.0" y="40" width="53.0" height="40" rx="20" fill="#101013" stroke="#3A3A42"/><text x="2382.5" y="65" text-anchor="middle" font-family="SFMono-Regular, ui-monospace, Menlo, Consolas, monospace" font-size="15" fill="#C4C4CB">C</text><rect x="2427.0" y="40" width="134.0" height="40" rx="20" fill="#101013" stroke="#3A3A42"/><text x="2494.0" y="65" text-anchor="middle" font-family="SFMono-Regular, ui-monospace, Menlo, Consolas, monospace" font-size="15" fill="#C4C4CB">TypeScript</text><rect x="2579.0" y="40" width="134.0" height="40" rx="20" fill="#101013" stroke="#3A3A42"/><text x="2646.0" y="65" text-anchor="middle" font-family="SFMono-Regular, ui-monospace, Menlo, Consolas, monospace" font-size="15" fill="#C4C4CB">JavaScript</text><rect x="2731.0" y="40" width="98.0" height="40" rx="20" fill="#101013" stroke="#3A3A42"/><text x="2780.0" y="65" text-anchor="middle" font-family="SFMono-Regular, ui-monospace, Menlo, Consolas, monospace" font-size="15" fill="#C4C4CB">Kotlin</text><rect x="2847.0" y="40" width="89.0" height="40" rx="20" fill="#101013" stroke="#3A3A42"/><text x="2891.5" y="65" text-anchor="middle" font-family="SFMono-Regular, ui-monospace, Menlo, Consolas, monospace" font-size="15" fill="#C4C4CB">React</text><rect x="2954.0" y="40" width="107.0" height="40" rx="20" fill="#101013" stroke="#3A3A42"/><text x="3007.5" y="65" text-anchor="middle" font-family="SFMono-Regular, ui-monospace, Menlo, Consolas, monospace" font-size="15" fill="#C4C4CB">Node.js</text><rect x="3079.0" y="40" width="116.0" height="40" rx="20" fill="#101013" stroke="#3A3A42"/><text x="3137.0" y="65" text-anchor="middle" font-family="SFMono-Regular, ui-monospace, Menlo, Consolas, monospace" font-size="15" fill="#C4C4CB">Tailwind</text></g><g><animateTransform attributeName="transform" type="translate" from="-1196.0 0" to="0 0" dur="31s" repeatCount="indefinite"/><rect x="0.0" y="108" width="134.0" height="40" rx="20" fill="#101013" stroke="#3A3A42"/><text x="67.0" y="133" text-anchor="middle" font-family="SFMono-Regular, ui-monospace, Menlo, Consolas, monospace" font-size="15" fill="#C4C4CB">Burp Suite</text><rect x="152.0" y="108" width="89.0" height="40" rx="20" fill="#101013" stroke="#3A3A42"/><text x="196.5" y="133" text-anchor="middle" font-family="SFMono-Regular, ui-monospace, Menlo, Consolas, monospace" font-size="15" fill="#C4C4CB">OSINT</text><rect x="259.0" y="108" width="71.0" height="40" rx="20" fill="#101013" stroke="#3A3A42"/><text x="294.5" y="133" text-anchor="middle" font-family="SFMono-Regular, ui-monospace, Menlo, Consolas, monospace" font-size="15" fill="#C4C4CB">CTF</text><rect x="348.0" y="108" width="116.0" height="40" rx="20" fill="#101013" stroke="#3A3A42"/><text x="406.0" y="133" text-anchor="middle" font-family="SFMono-Regular, ui-monospace, Menlo, Consolas, monospace" font-size="15" fill="#C4C4CB">Firebase</text><rect x="482.0" y="108" width="116.0" height="40" rx="20" fill="#101013" stroke="#3A3A42"/><text x="540.0" y="133" text-anchor="middle" font-family="SFMono-Regular, ui-monospace, Menlo, Consolas, monospace" font-size="15" fill="#C4C4CB">Supabase</text><rect x="616.0" y="108" width="125.0" height="40" rx="20" fill="#101013" stroke="#3A3A42"/><text x="678.5" y="133" text-anchor="middle" font-family="SFMono-Regular, ui-monospace, Menlo, Consolas, monospace" font-size="15" fill="#C4C4CB">Vertex AI</text><rect x="759.0" y="108" width="80.0" height="40" rx="20" fill="#101013" stroke="#3A3A42"/><text x="799.0" y="133" text-anchor="middle" font-family="SFMono-Regular, ui-monospace, Menlo, Consolas, monospace" font-size="15" fill="#C4C4CB">Groq</text><rect x="857.0" y="108" width="98.0" height="40" rx="20" fill="#101013" stroke="#3A3A42"/><text x="906.0" y="133" text-anchor="middle" font-family="SFMono-Regular, ui-monospace, Menlo, Consolas, monospace" font-size="15" fill="#C4C4CB">Ollama</text><rect x="973.0" y="108" width="89.0" height="40" rx="20" fill="#101013" stroke="#3A3A42"/><text x="1017.5" y="133" text-anchor="middle" font-family="SFMono-Regular, ui-monospace, Menlo, Consolas, monospace" font-size="15" fill="#C4C4CB">Figma</text><rect x="1080.0" y="108" width="98.0" height="40" rx="20" fill="#101013" stroke="#3A3A42"/><text x="1129.0" y="133" text-anchor="middle" font-family="SFMono-Regular, ui-monospace, Menlo, Consolas, monospace" font-size="15" fill="#C4C4CB">Unreal</text><rect x="1196.0" y="108" width="134.0" height="40" rx="20" fill="#101013" stroke="#3A3A42"/><text x="1263.0" y="133" text-anchor="middle" font-family="SFMono-Regular, ui-monospace, Menlo, Consolas, monospace" font-size="15" fill="#C4C4CB">Burp Suite</text><rect x="1348.0" y="108" width="89.0" height="40" rx="20" fill="#101013" stroke="#3A3A42"/><text x="1392.5" y="133" text-anchor="middle" font-family="SFMono-Regular, ui-monospace, Menlo, Consolas, monospace" font-size="15" fill="#C4C4CB">OSINT</text><rect x="1455.0" y="108" width="71.0" height="40" rx="20" fill="#101013" stroke="#3A3A42"/><text x="1490.5" y="133" text-anchor="middle" font-family="SFMono-Regular, ui-monospace, Menlo, Consolas, monospace" font-size="15" fill="#C4C4CB">CTF</text><rect x="1544.0" y="108" width="116.0" height="40" rx="20" fill="#101013" stroke="#3A3A42"/><text x="1602.0" y="133" text-anchor="middle" font-family="SFMono-Regular, ui-monospace, Menlo, Consolas, monospace" font-size="15" fill="#C4C4CB">Firebase</text><rect x="1678.0" y="108" width="116.0" height="40" rx="20" fill="#101013" stroke="#3A3A42"/><text x="1736.0" y="133" text-anchor="middle" font-family="SFMono-Regular, ui-monospace, Menlo, Consolas, monospace" font-size="15" fill="#C4C4CB">Supabase</text><rect x="1812.0" y="108" width="125.0" height="40" rx="20" fill="#101013" stroke="#3A3A42"/><text x="1874.5" y="133" text-anchor="middle" font-family="SFMono-Regular, ui-monospace, Menlo, Consolas, monospace" font-size="15" fill="#C4C4CB">Vertex AI</text><rect x="1955.0" y="108" width="80.0" height="40" rx="20" fill="#101013" stroke="#3A3A42"/><text x="1995.0" y="133" text-anchor="middle" font-family="SFMono-Regular, ui-monospace, Menlo, Consolas, monospace" font-size="15" fill="#C4C4CB">Groq</text><rect x="2053.0" y="108" width="98.0" height="40" rx="20" fill="#101013" stroke="#3A3A42"/><text x="2102.0" y="133" text-anchor="middle" font-family="SFMono-Regular, ui-monospace, Menlo, Consolas, monospace" font-size="15" fill="#C4C4CB">Ollama</text><rect x="2169.0" y="108" width="89.0" height="40" rx="20" fill="#101013" stroke="#3A3A42"/><text x="2213.5" y="133" text-anchor="middle" font-family="SFMono-Regular, ui-monospace, Menlo, Consolas, monospace" font-size="15" fill="#C4C4CB">Figma</text><rect x="2276.0" y="108" width="98.0" height="40" rx="20" fill="#101013" stroke="#3A3A42"/><text x="2325.0" y="133" text-anchor="middle" font-family="SFMono-Regular, ui-monospace, Menlo, Consolas, monospace" font-size="15" fill="#C4C4CB">Unreal</text><rect x="2392.0" y="108" width="134.0" height="40" rx="20" fill="#101013" stroke="#3A3A42"/><text x="2459.0" y="133" text-anchor="middle" font-family="SFMono-Regular, ui-monospace, Menlo, Consolas, monospace" font-size="15" fill="#C4C4CB">Burp Suite</text><rect x="2544.0" y="108" width="89.0" height="40" rx="20" fill="#101013" stroke="#3A3A42"/><text x="2588.5" y="133" text-anchor="middle" font-family="SFMono-Regular, ui-monospace, Menlo, Consolas, monospace" font-size="15" fill="#C4C4CB">OSINT</text><rect x="2651.0" y="108" width="71.0" height="40" rx="20" fill="#101013" stroke="#3A3A42"/><text x="2686.5" y="133" text-anchor="middle" font-family="SFMono-Regular, ui-monospace, Menlo, Consolas, monospace" font-size="15" fill="#C4C4CB">CTF</text><rect x="2740.0" y="108" width="116.0" height="40" rx="20" fill="#101013" stroke="#3A3A42"/><text x="2798.0" y="133" text-anchor="middle" font-family="SFMono-Regular, ui-monospace, Menlo, Consolas, monospace" font-size="15" fill="#C4C4CB">Firebase</text><rect x="2874.0" y="108" width="116.0" height="40" rx="20" fill="#101013" stroke="#3A3A42"/><text x="2932.0" y="133" text-anchor="middle" font-family="SFMono-Regular, ui-monospace, Menlo, Consolas, monospace" font-size="15" fill="#C4C4CB">Supabase</text><rect x="3008.0" y="108" width="125.0" height="40" rx="20" fill="#101013" stroke="#3A3A42"/><text x="3070.5" y="133" text-anchor="middle" font-family="SFMono-Regular, ui-monospace, Menlo, Consolas, monospace" font-size="15" fill="#C4C4CB">Vertex AI</text><rect x="3151.0" y="108" width="80.0" height="40" rx="20" fill="#101013" stroke="#3A3A42"/><text x="3191.0" y="133" text-anchor="middle" font-family="SFMono-Regular, ui-monospace, Menlo, Consolas, monospace" font-size="15" fill="#C4C4CB">Groq</text><rect x="3249.0" y="108" width="98.0" height="40" rx="20" fill="#101013" stroke="#3A3A42"/><text x="3298.0" y="133" text-anchor="middle" font-family="SFMono-Regular, ui-monospace, Menlo, Consolas, monospace" font-size="15" fill="#C4C4CB">Ollama</text><rect x="3365.0" y="108" width="89.0" height="40" rx="20" fill="#101013" stroke="#3A3A42"/><text x="3409.5" y="133" text-anchor="middle" font-family="SFMono-Regular, ui-monospace, Menlo, Consolas, monospace" font-size="15" fill="#C4C4CB">Figma</text><rect x="3472.0" y="108" width="98.0" height="40" rx="20" fill="#101013" stroke="#3A3A42"/><text x="3521.0" y="133" text-anchor="middle" font-family="SFMono-Regular, ui-monospace, Menlo, Consolas, monospace" font-size="15" fill="#C4C4CB">Unreal</text></g></g></g><rect x="0.5" y="0.5" width="1199" height="189" rx="22" fill="none" stroke="#3A3A42" pathLength="1" stroke-dasharray="1" stroke-dashoffset="1"><animate attributeName="stroke-dashoffset" from="1" to="0" begin="0s" dur="2.2s" fill="freeze" calcMode="spline" keyTimes="0;1" keySplines="0.16 1 0.3 1"/></rect></svg>